<svg width="41" height="41" viewBox="0 0 41 41" fill="none" xmlns="http://www.w3.org/2000/svg">
<path d="M7.74981 8.19971H34.2834C36.7865 8.19971 38.0481 9.40921 38.0481 11.8692V29.1302C38.0481 31.5697 36.7865 32.7997 34.2834 32.7997H7.74981C5.24664 32.7997 3.98505 31.5697 3.98505 29.1302V11.8692C3.98505 9.40921 5.24664 8.19971 7.74981 8.19971ZM21.0066 25.8297L34.5036 14.4932C34.9843 14.0832 35.3647 13.1402 34.764 12.2997C34.1832 11.4592 33.1219 11.4387 32.421 11.9512L21.0066 19.8642L9.61216 11.9512C8.91128 11.4387 7.84994 11.4592 7.2692 12.2997C6.66844 13.1402 7.04892 14.0832 7.52953 14.4932L21.0066 25.8297Z" fill="#715BA8"/>
</svg>
