<svg width="41" height="41" viewBox="0 0 41 41" fill="none" xmlns="http://www.w3.org/2000/svg">
<path fill-rule="evenodd" clip-rule="evenodd" d="M20.0253 3.41675C10.8087 3.41675 3.33755 11.065 3.33755 20.5001C3.33755 29.9352 10.8087 37.5834 20.0253 37.5834C29.242 37.5834 36.7131 29.9352 36.7131 20.5001C36.7131 11.065 29.242 3.41675 20.0253 3.41675ZM15.019 20.5001C15.0191 19.4591 15.3288 18.4429 15.907 17.5866C16.4852 16.7303 17.3044 16.0745 18.2556 15.7065C19.2068 15.3385 20.2449 15.2758 21.2317 15.5266C22.2186 15.7775 23.1075 16.33 23.7801 17.1107C24.0731 17.4506 24.4859 17.6573 24.9278 17.6855C25.3697 17.7137 25.8044 17.561 26.1364 17.2611C26.4683 16.9611 26.6703 16.5385 26.6978 16.0861C26.7254 15.6338 26.5762 15.1887 26.2832 14.8489C25.1622 13.5478 23.6806 12.627 22.0358 12.2091C20.3909 11.7912 18.6607 11.8959 17.0755 12.5094C15.4902 13.1228 14.125 14.2159 13.1615 15.6432C12.198 17.0705 11.6819 18.7643 11.6819 20.4992C11.6819 22.2342 12.198 23.928 13.1615 25.3553C14.125 26.7825 15.4902 27.8756 17.0755 28.4891C18.6607 29.1026 20.3909 29.2073 22.0358 28.7894C23.6806 28.3714 25.1622 27.4506 26.2832 26.1495C26.4282 25.9813 26.5394 25.7854 26.6104 25.5732C26.6814 25.361 26.7109 25.1365 26.6972 24.9126C26.6835 24.6887 26.6269 24.4697 26.5305 24.2682C26.4341 24.0667 26.2999 23.8866 26.1356 23.7382C25.9712 23.5898 25.7799 23.476 25.5726 23.4033C25.3652 23.3306 25.146 23.3004 24.9272 23.3144C24.7085 23.3285 24.4946 23.3865 24.2978 23.4851C24.101 23.5838 23.925 23.7212 23.7801 23.8894C23.1075 24.6701 22.2186 25.2227 21.2317 25.4735C20.2449 25.7244 19.2068 25.6616 18.2556 25.2936C17.3044 24.9257 16.4852 24.2699 15.907 23.4136C15.3288 22.5573 15.0191 21.541 15.019 20.5001Z" fill="#715BA8"/>
</svg>
