<svg width="42" height="41" viewBox="0 0 42 41" fill="none" xmlns="http://www.w3.org/2000/svg">
<path d="M5.59194 9.21675L9.8561 4.95659C10.1569 4.65447 10.5144 4.41476 10.9081 4.25123C11.3019 4.08769 11.724 4.00356 12.1503 4.00366C13.0192 4.00366 13.836 4.34399 14.4486 4.95659L19.0371 9.54507C19.3392 9.84587 19.5789 10.2034 19.7424 10.5971C19.906 10.9908 19.9901 11.413 19.99 11.8393C19.99 12.7082 19.6497 13.525 19.0371 14.1375L15.6818 17.4928C16.4672 19.224 17.5591 20.7988 18.9049 22.1414C20.2474 23.4904 21.8221 24.5864 23.5535 25.3765L26.9087 22.0212C27.2095 21.7191 27.5671 21.4794 27.9608 21.3159C28.3545 21.1523 28.7766 21.0682 29.203 21.0683C30.0718 21.0683 30.8886 21.4086 31.5012 22.0212L36.0937 26.6057C36.3962 26.9071 36.6361 27.2653 36.7997 27.6597C36.9632 28.0541 37.0471 28.477 37.0466 28.904C37.0466 29.7728 36.7063 30.5896 36.0937 31.2022L31.8375 35.4583C30.8606 36.4393 29.5113 36.9959 28.1259 36.9959C27.8336 36.9959 27.5534 36.9718 27.2771 36.9238C21.8798 36.0349 16.5266 33.1641 12.2064 28.8479C7.89018 24.5357 5.02339 19.1865 4.12251 13.7732C3.85024 12.1196 4.39878 10.4179 5.59194 9.21675Z" fill="#715BA8"/>
</svg>
