<svg width="41" height="41" viewBox="0 0 41 41" fill="none" xmlns="http://www.w3.org/2000/svg">
<g clip-path="url(#clip0_1631_394)">
<path d="M18.5834 36.7716C15.4075 32.7017 8.34387 22.8374 8.34387 17.2966C8.34387 10.5742 13.5738 5.12476 20.0253 5.12476C26.4744 5.12476 31.7068 10.5742 31.7068 17.2966C31.7068 22.8374 24.5884 32.7017 21.4672 36.7716C20.7189 37.7416 19.3317 37.7416 18.5834 36.7716ZM20.0253 21.3539C22.173 21.3539 23.9191 19.5345 23.9191 17.2966C23.9191 15.0588 22.173 13.2393 20.0253 13.2393C17.8776 13.2393 16.1315 15.0588 16.1315 17.2966C16.1315 19.5345 17.8776 21.3539 20.0253 21.3539Z" fill="#715BA8"/>
</g>
<defs>
<clipPath id="clip0_1631_394">
<rect width="23.3629" height="32.4583" fill="white" transform="translate(8.34387 5.12476)"/>
</clipPath>
</defs>
</svg>
