<svg xmlns="http://www.w3.org/2000/svg" viewBox="0 0 2476 800"><defs><style>.a{fill:#ea4335}.c{fill:#4285f4}</style></defs><path class="a" d="M1053.11 413.55c0 117.62-92 204.3-204.94 204.3s-204.95-86.68-204.95-204.3c0-118.45 92-204.3 204.95-204.3s204.94 85.85 204.94 204.3Zm-89.72 0c0-73.5-53.33-123.79-115.22-123.79s-115.23 50.29-115.23 123.79c0 72.77 53.33 123.79 115.23 123.79s115.22-51.12 115.22-123.79Z"/><path d="M1495.23 413.55c0 117.62-92 204.3-205 204.3s-204.94-86.68-204.94-204.3c0-118.36 92-204.3 204.94-204.3s205 85.85 205 204.3Zm-89.72 0c0-73.5-53.33-123.79-115.23-123.79s-115.22 50.29-115.22 123.79c0 72.77 53.33 123.79 115.22 123.79s115.23-51.12 115.23-123.79Z" style="fill:#fbbc05"/><path class="c" d="M1919.94 221.6v368.07C1919.94 739 1833.36 800 1731 800c-96.34 0-154.32-65.55-176.19-119.16l76-32.18c13.53 32.91 46.69 71.75 100.1 71.75 65.51 0 106.11-41.12 106.11-118.52v-29.08h-3c-19.53 24.52-57.17 45.94-104.67 45.94-99.39 0-190.44-88.07-190.44-201.39 0-114.14 91-202.94 190.44-202.94 47.41 0 85 21.42 104.67 45.22h3v-36.85h82.9Zm-79.86 192.69c0-71.94-48-124.53-109.06-124.53-61.89 0-113.75 52.59-113.75 124.53 0 71.2 51.86 123.05 113.75 123.05 61.07 0 109.06-51.85 109.06-123.05Z"/><path d="M2058.1 11v598.7H1966V11Z" style="fill:#34a853"/><path class="a" d="m2400.37 480.79 69.63 46.42c-22.48 33.25-76.64 90.54-170.22 90.54-116.06 0-202.73-89.71-202.73-204.29 0-121.49 87.41-204.3 192.69-204.3 106 0 157.87 84.37 174.82 130l9.31 23.21-273.1 113.08c20.91 41 53.43 61.89 99 61.89s77.37-22.47 100.58-56.55ZM2186 407.29l182.56-75.81c-10-25.51-40.26-43.29-75.81-43.29-45.55 0-109.02 40.25-106.75 119.1Z"/><path class="c" d="M308 361v-83h279.69c2.73 14.46 4.14 31.57 4.14 50.09 0 62.26-17 139.25-71.87 194.1-41.1 42.81-91 70.22-153 80.55-176 29.32-346.16-89.42-365.19-266.86C-17.76 154.2 130.13 0 308.13 0c92.6 0 158.56 36.33 208.13 83.69l-58.56 58.56c-26.51-24.86-60-45.61-102.73-54.54C223.31 60.15 95.81 159.84 90.41 294.25 85.32 420.82 182.67 524.46 308 524.46c79.28 0 124.44-31.84 153.36-60.76 23.46-23.46 38.89-57 45-102.74Z"/></svg>