<svg viewBox="0 0 571 109" xmlns="http://www.w3.org/2000/svg" xml:space="preserve" style="fill-rule:evenodd;clip-rule:evenodd;stroke-linejoin:round;stroke-miterlimit:2"><path d="M0 28.831c.149 10.848 4.162 22.738 17.833 22.738 13.673 0 17.686-11.89 17.834-22.738-.148-10.848-4.161-22.737-17.834-22.737C4.162 6.094.149 17.983 0 28.831m-17.536-68.212H.595v37.003c5.499-5.052 12.483-8.172 21.4-8.172 19.32 0 32.695 17.683 32.695 39.381 0 21.699-13.375 39.381-32.695 39.381-10.849 0-16.644-3.714-21.103-9.064H.595v7.281h-18.131v-105.81Z" style="fill:#705aa7;fill-rule:nonzero" transform="translate(142.129 39.836)"/><path d="M0 0c0 11.741 6.539 22.738 19.468 22.738S38.937 11.741 38.937 0s-6.54-22.737-19.469-22.737C6.539-22.737 0-11.741 0 0m57.959 0c0 22.44-14.118 39.381-38.491 39.381-24.372 0-38.49-16.941-38.49-39.381s14.118-39.381 38.49-39.381C43.841-39.381 57.959-22.44 57.959 0" style="fill:#705aa7;fill-rule:nonzero" transform="translate(222.672 68.667)"/><path d="M0-73.413h18.131v10.401h.296c4.31-8.618 12.633-12.184 23.184-12.184v18.427c-12.335 0-23.48 5.796-23.48 22.142v36.41H0v-75.196Z" style="fill:#705aa7;fill-rule:nonzero" transform="translate(289.986 104.482)"/><path d="M0-73.413h18.131v10.401h.296c4.31-8.618 12.633-12.184 23.184-12.184v18.427c-12.335 0-23.48 5.796-23.48 22.142v36.41H0v-75.196Z" style="fill:#705aa7;fill-rule:nonzero" transform="translate(343.036 104.482)"/><path d="M0 0c0 11.741 6.539 22.738 19.468 22.738S38.937 11.741 38.937 0s-6.54-22.737-19.469-22.737C6.539-22.737 0-11.741 0 0m57.959 0c0 22.44-14.118 39.381-38.491 39.381-24.372 0-38.49-16.941-38.49-39.381s14.118-39.381 38.49-39.381C43.841-39.381 57.959-22.44 57.959 0" style="fill:#705aa7;fill-rule:nonzero" transform="translate(404.409 68.667)"/><path d="M0-75.196h18.725l12.632 51.122h.296l14.119-51.122h16.347l14.119 51.122h.297l12.632-51.122h18.725L86.194 0H68.361L54.095-50.378h-.298L39.53 0H21.697L0-75.196Z" style="fill:#705aa7;fill-rule:nonzero" transform="translate(462.509 106.264)"/><path d="M22.814-33.764c3.043 5.517 7.823 10.098 14.275 13.681L22.814 15.415 5.79 8.568l17.024-42.332Z" style="fill:#705aa7;fill-rule:nonzero" transform="scale(-1 1) rotate(68.092 -48.175 -84.242)"/><path d="M-28.191-18.349H7.458V0h-43.107c3.897-4.938 6.452-11.122 7.458-18.349" style="fill:#705aa7;fill-rule:nonzero" transform="matrix(-1 0 0 1 7.459 106.267)"/><path d="M.161.393H.159v.065H0v-.659h.159v.347c0 .122.064.174.14.174.083 0 .11-.059.11-.119v-.436c0-.191.129-.238.241-.238.09 0 .153.035.189.08h.002v-.065H1v.659H.841v-.354C.841-.232.805-.32.685-.32c-.081 0-.117.039-.117.131v.438c0 .145-.071.224-.227.224a.23.23 0 0 1-.18-.08Z" style="fill:url(#a);fill-rule:nonzero" transform="matrix(114.148 0 0 -114.148 0 54.026)"/><path d="M0-7.431v75.205h18.133V-7.431H0Z" style="fill:#ffcf01;fill-rule:nonzero" transform="translate(96.015 38.493)"/><path d="M0 7.431v-75.205h-18.133V7.431H0Z" style="fill:#ffcf01;fill-rule:nonzero" transform="translate(18.134 69.558)"/><defs><linearGradient id="a" x1="0" y1="0" x2="1" y2="0" gradientUnits="userSpaceOnUse" gradientTransform="matrix(1 0 0 -1 0 0)"><stop offset="0" style="stop-color:#e9841d;stop-opacity:1"/><stop offset=".46" style="stop-color:#ffcf01;stop-opacity:1"/><stop offset=".55" style="stop-color:#ffcf01;stop-opacity:1"/><stop offset="1" style="stop-color:#e9841d;stop-opacity:1"/></linearGradient></defs></svg>