<svg width="16" height="16" viewBox="0 0 16 16" fill="none" xmlns="http://www.w3.org/2000/svg">
<g clip-path="url(#clip0_842_242)">
<path d="M9.13452 1.03776C9.66561 1.66758 9.9945 2.46027 10.1168 3.40504L15.2182 3.40515L15.2181 1.03779L9.13452 1.03776Z" fill="#705AA7"/>
<path d="M4.75365 12.3223H0.0004789V14.6896H5.74805C5.22845 14.0525 4.88779 13.2547 4.75365 12.3223Z" fill="#705AA7"/>
<path d="M2.45036 2.16175H2.41992V1.2045H0V10.9096H2.41992V5.79931C2.41992 4.00262 3.39398 3.23682 4.55068 3.23682C5.81391 3.23682 6.22484 4.10571 6.22484 4.98932V11.4103C6.22484 14.2231 8.18817 14.9153 9.89277 14.9153C11.2625 14.9153 12.2214 14.3998 12.7693 13.7371H12.7997V14.6944H15.2197V4.98932H12.7997V10.2027C12.7997 11.3661 12.2518 12.6621 10.4255 12.6621C9.19267 12.6621 8.64476 12.0877 8.64476 10.7328V4.28243C8.64476 2.14702 7.56417 0.983595 5.1899 0.983595C4.6716 0.971412 4.15697 1.07078 3.68319 1.27453C3.20942 1.47828 2.78834 1.78132 2.45036 2.16175Z" fill="url(#paint0_linear_842_242)"/>
</g>
<defs>
<linearGradient id="paint0_linear_842_242" x1="0" y1="7.94944" x2="15.2197" y2="7.94944" gradientUnits="userSpaceOnUse">
<stop stop-color="#E9841D"/>
<stop offset="0.46" stop-color="#FFCF01"/>
<stop offset="0.55" stop-color="#FFCF01"/>
<stop offset="1" stop-color="#E9841D"/>
</linearGradient>
<clipPath id="clip0_842_242">
<rect width="16" height="16" fill="white"/>
</clipPath>
</defs>
</svg>
